<?xml version="1.0" encoding="UTF-8"?>
<!DOCTYPE svg PUBLIC "-//W3C//DTD SVG 1.1//EN" "http://www.w3.org/Graphics/SVG/1.1/DTD/svg11.dtd">
<!-- Creator: CorelDRAW -->
<svg xmlns="http://www.w3.org/2000/svg" xml:space="preserve" width="384px" height="488px" shape-rendering="geometricPrecision" text-rendering="geometricPrecision" image-rendering="optimizeQuality" fill-rule="evenodd" clip-rule="evenodd"
viewBox="0 0 384 488"
 xmlns:xlink="http://www.w3.org/1999/xlink"
 xmlns:dc="http://purl.org/dc/elements/1.1/"
 xmlns:cc="http://web.resource.org/cc/"
 xmlns:rdf="http://www.w3.org/1999/02/22-rdf-syntax-ns#"
 xmlns:svg="http://www.w3.org/2000/svg"
 xmlns:sodipodi="http://sodipodi.sourceforge.net/DTD/sodipodi-0.dtd"
 xmlns:inkscape="http://www.inkscape.org/namespaces/inkscape"
 sodipodi:version="0.32"
 inkscape:version="0.45.1"
 sodipodi:docname="pirkanmaa.svg"
 sodipodi:docbase="G:\Users\Eetu\Pictures\väliaikaistiedostot"
 version="1.0"
 inkscape:output_extension="org.inkscape.output.svg.inkscape">
 <g id="Layer_x0020_1">
  <metadata id="CorelCorpID_0Corel-Layer"/>
  <sodipodi:namedview id="base" pagecolor="#ffffff" bordercolor="#666666" borderopacity="1.0" inkscape:pageopacity="0.0" inkscape:pageshadow="2" inkscape:zoom="2.8284271" inkscape:cx="210.48211" inkscape:cy="196.94397" inkscape:document-units="px" inkscape:current-layer="layer1" gridtolerance="10000" inkscape:window-width="1305" inkscape:window-height="969" inkscape:window-x="134" inkscape:window-y="16"/>
  <polygon id="path2205" fill="#95CF98" stroke="black" stroke-width="3.97503" points="125.592,473.844 140.202,474.379 169.781,462.263 190.272,485.426 195.974,479.012 191.697,447.83 260.833,421.458 261.189,408.986 248.538,387.604 276.512,398.295 300.923,376.378 326.047,386.535 331.927,374.418 342.975,385.644 362.041,376.378 359.546,324.527 367.92,330.585 368.455,305.639 350.102,292.81 348.855,279.803 353.666,270.003 375.226,279.447 370.237,251.828 381.462,229.021 363.644,214.232 344.757,221.003 315,185.188 327.295,164.34 332.106,172.893 345.647,150.086 339.233,123.893 316.604,98.4124 302.705,104.471 283.64,100.729 275.978,78.0999 263.862,79.5255 243.905,67.9434 244.796,40.1471 232.323,33.9103 228.937,10.2124 217.177,3.61928 204.527,15.0231 191.341,24.823 171.741,21.9722 168.534,30.1686 139.846,20.7247 123.988,47.9869 93.3404,64.0236 66.0785,63.4887 65.5438,93.2454 50.5766,100.551 49.3291,127.278 30.2635,129.238 22.9581,143.136 36.3218,150.62 35.0745,164.162 50.0417,173.962 57.3475,198.195 48.6165,227.061 35.2525,222.963 31.6891,247.017 40.7764,255.214 29.3729,268.577 19.0378,298.156 38.2816,309.916 36.5,322.745 13.3362,325.952 3.35792,334.505 4.78347,347.869 16.1873,378.516 42.0236,389.208 50.398,378.694 66.4348,394.018 58.951,416.647 70.8891,437.673 61.2675,441.593 71.7804,453.888 92.6278,451.037 91.9148,459.946 108.486,454.6 122.919,464.757 "/>
  <path id="path4148" fill="none" stroke="black" stroke-width="2.02394" d="M212.932 439.129l-6.41452 -10.8695 -19.2439 -11.7598 -32.6075 -11.7601 -24.4108 1.06923 -0.712914 -8.37468 -18.1746 -1.78186 -37.0622 6.41452 -8.1961 -8.731 -2.13846 -3.74173m-1.24696 -119.383l24.9455 0.890646 0 20.3131 16.0364 5.16699 0.356315 13.1856 -8.55298 6.94885 17.8183 30.1133 -8.01808 8.01808 8.731 5.34558 29.2218 1.06923 -4.63266 -13.8986 10.8695 -1.42526 10.5126 5.87991 20.3128 24.9457 0.712914 14.6112 15.5018 1.95987 18.1746 -24.2328 12.473 3.74173 12.2944 -12.2947 4.27635 9.80023 -6.05821 10.3343 7.66205 4.09833"/>
  <polyline id="path4151" fill="none" stroke="black" stroke-width="2.02507" points="192.263,448.573 167.138,426.122 155.913,428.438 147.004,413.292 161.259,394.049 180.859,391.198 "/>
  <polyline id="path4153" fill="none" stroke="black" stroke-width="2.02507" points="207.586,429.151 219.168,410.442 196.539,393.693 "/>
  <polyline id="path5124" fill="none" stroke="black" stroke-width="2.02507" points="149.274,345.732 150.685,329.327 175.556,314.334 187.727,315.921 188.256,328.622 159.504,351.376 "/>
  <polyline id="path6095" fill="none" stroke="black" stroke-width="2.02507" points="188.256,328.622 206.072,332.679 215.068,369.015 "/>
  <polyline id="path7066" fill="none" stroke="black" stroke-width="2.02507" points="103.235,296.695 129.342,300.223 152.272,281.702 155.8,251.009 132.516,259.123 110.291,256.125 110.291,234.781 59.3139,242.895 31.6202,241.131 31.6202,241.131 "/>
  <polyline id="path8037" fill="none" stroke="black" stroke-width="2.02507" points="59.3139,242.542 59.8431,261.416 65.1345,270.412 "/>
  <polyline id="path9981" fill="none" stroke="black" stroke-width="2.02507" points="206.072,333.208 241.527,271.471 260.224,288.757 279.275,289.286 314.553,335.854 297.09,343.086 271.514,333.737 269.044,348.201 245.937,354.551 239.763,360.196 "/>
  <polyline id="path10952" fill="none" stroke="black" stroke-width="2.02507" points="314.906,335.854 351.772,322.977 357.593,325.8 "/>
  <polyline id="path11923" fill="none" stroke="black" stroke-width="2.02507" points="286.859,299.34 320.903,314.51 326.548,306.749 336.779,307.808 339.777,294.931 344.011,293.52 348.773,293.343 353.889,294.931 "/>
  <polyline id="path12894" fill="none" stroke="black" stroke-width="2.02507" points="241.703,271.471 244.702,220.846 229.709,227.196 212.599,207.617 201.309,163.695 188.256,129.828 211.54,122.066 215.95,105.662 279.098,137.236 285.801,173.926 299.031,187.861 296.738,197.562 244.349,221.023 "/>
  <polyline id="path13865" fill="none" stroke="black" stroke-width="2.02507" points="260.577,214.143 295.856,244.306 312.965,245.188 329.899,205.853 314.377,184.509 298.678,187.861 "/>
  <polyline id="path16776" fill="none" stroke="black" stroke-width="2.02507" points="237.999,116.422 262.341,91.3743 262.694,79.909 "/>
  <polyline id="path17747" fill="none" stroke="black" stroke-width="2.02507" points="189.491,129.828 180.319,133.179 145.084,100.943 135.691,120.126 106.94,122.066 96.1796,97.5481 92.4753,63.6806 122.639,47.0996 148.304,94.1525 144.996,101.164 " sodipodi:nodetypes="cccccccccc"/>
  <polyline id="path18718" fill="none" stroke="black" stroke-width="2.02507" points="169.383,318.038 160.563,300.752 147.157,285.759 "/>
  <path id="path19689" fill="none" stroke="black" stroke-width="2.02394" d="M160.21 300.399l30.5158 -2.82246 -3.70432 -45.3325m-129.825 -57.8568l-8.29021 -21.6964 11.289 -15.1696 18.5213 1.764 6.87912 17.8155 14.1114 -11.6416 7.40835 15.3459 23.0128 -2.35531 2.51263 -10.8116 35.8591 32.9227 0 8.99604 -28.7518 3.70432 -29.2811 21.3432" sodipodi:nodetypes="ccccccccccccccc"/>
  <polyline id="path21631" fill="none" stroke="black" stroke-width="2.02507" points="187.022,252.42 194.783,247.658 200.604,212.203 214.01,208.499 "/>
  <path id="path22602" fill="none" stroke="black" stroke-width="2.02507" d="M109.409 454.742c0,-1.58712 3.528,-30.3392 3.528,-30.3392l11.6422 -2.29295 -15.8754 -18.3447 6.52621 -28.3995 -2.82189 -16.0515"/>
  <polyline id="path23573" fill="none" stroke="black" stroke-width="2.02507" points="132.63,167.513 142.218,125.771 136.221,119.421 " sodipodi:nodetypes="ccc"/>
 </g>
</svg>
